<?xml version="1.0" standalone="no"?><!DOCTYPE svg PUBLIC "-//W3C//DTD SVG 1.1//EN" "http://www.w3.org/Graphics/SVG/1.1/DTD/svg11.dtd"><svg t="1558714346721" class="icon" style="" viewBox="0 0 1024 1024" version="1.1" xmlns="http://www.w3.org/2000/svg" p-id="2021" xmlns:xlink="http://www.w3.org/1999/xlink" width="200" height="200"><defs><style type="text/css"></style></defs><path d="M559.666347 477.866667v74.666666h123.733333c19.2 0 34.133333 14.933333 34.133333 34.133334 0 19.2-14.933333 34.133333-34.133333 34.133333h-123.733333v145.066667c0 19.2-14.933333 34.133333-34.133334 34.133333-19.2 0-34.133333-14.933333-34.133333-34.133333V618.666667h-121.6c-19.2 0-34.133333-14.933333-34.133333-34.133334 0-19.2 14.933333-34.133333 34.133333-34.133333h121.6v-74.666667h-119.466667c-19.2 0-34.133333-14.933333-34.133333-36.266666 0-19.2 14.933333-36.266667 34.133333-36.266667h76.8l-76.8-76.8c-12.8-12.8-12.8-32 0-44.8 12.8-12.8 32-12.8 44.8 0l108.8 108.8 108.8-108.8c12.8-12.8 32-12.8 44.8 0 12.8 12.8 12.8 32 0 44.8l-76.8 76.8h81.066667c19.2 0 34.133333 14.933333 34.133333 36.266667 0 19.2-14.933333 36.266667-34.133333 36.266666h-123.733333z m443.733333 185.6c-64 209.066667-258.133333 360.533333-486.4 360.533333-232.533333 0-430.933333-157.866667-490.666667-373.333333-19.2-49.066667-25.6-104.533333-25.6-104.533334-4.266667-23.466667 10.666667-32 29.866667-19.2 0 0 61.866667 40.533333 87.466667 55.466667 49.066667 27.733333 61.866667 38.4 61.866666 38.4 29.866667 19.2 25.6 42.666667-6.4 53.333333l-40.533333 12.8c68.266667 145.066667 215.466667 245.333333 388.266667 245.333334 192 0 354.133333-125.866667 407.466666-298.666667 2.133333-10.666667 14.933333-19.2 27.733334-19.2h40.533333c12.8 0 19.2 8.533333 14.933333 19.2l-6.4 25.6s-2.133333 2.133333-2.133333 4.266667z m-896-262.4c49.066667-179.2 215.466667-313.6 411.733333-313.6 174.933333 0 326.4 104.533333 392.533334 256l-46.933334 14.933333c-34.133333 10.666667-38.4 36.266667-10.666666 57.6 0 0 4.266667 6.4 53.333333 36.266667 23.466667 14.933333 85.333333 55.466667 85.333333 55.466666 19.2 12.8 34.133333 4.266667 32-19.2 0 0 0-27.733333-8.533333-70.4-44.8-238.933333-251.733333-418.133333-501.333333-418.133333s-456.533333 179.2-501.333334 416c0 2.133333 0 4.266667-2.133333 6.4 0 8.533333 8.533333 17.066667 21.333333 19.2l38.4 2.133333c10.666667 0 23.466667-8.533333 27.733334-19.2 0 0 4.266667-12.8 4.266666-17.066666 4.266667-2.133333 4.266667-4.266667 4.266667-6.4z" p-id="2022"></path></svg>