<?xml version="1.0" standalone="no"?><!DOCTYPE svg PUBLIC "-//W3C//DTD SVG 1.1//EN" "http://www.w3.org/Graphics/SVG/1.1/DTD/svg11.dtd"><svg t="1558714495815" class="icon" style="" viewBox="0 0 1024 1024" version="1.1" xmlns="http://www.w3.org/2000/svg" p-id="3629" xmlns:xlink="http://www.w3.org/1999/xlink" width="200" height="200"><defs><style type="text/css"></style></defs><path d="M512.551724375 36.96551750000003C249.93103437499997 36.96551750000003 36.96551750000003 249.93103437499997 36.96551750000003 513.1034478125c0 263.1724134375 212.965516875 476.13793125 475.58620687499996 476.13793125s475.58620687499996-212.965516875 475.58620687499996-476.13793125C988.1379312499998 249.93103437499997 775.1724134374999 36.96551750000003 512.551724375 36.96551750000003zM511.16137906250003 936.8275859374999C277.958620625 936.8275859374999 89.37931062500002 747.6744828124998 89.37931062500002 514.48275875S278.53241375000005 92.13793062500002 511.16137906250003 92.13793062500002c233.19172406250001 0 421.7765521875 189.153103125 421.7765521875 422.344828125 0.5682759374999999 233.19172406250001-188.58482718749997 422.34482718749996-421.7765521875 422.34482718749996z" fill="#2c2c2c" p-id="3630"></path><path d="M709.5172409375 651.0344825l-99.31034437499999-105.3793096875c14.3448271875-25.37931 23.1724134375-54.06896531249999 23.1724134375-85.5172415625 0-94.3448278125-76.1379309375-170.48275875-170.4827578125-170.48275875-94.3448278125 0-170.48275875 76.1379309375-170.48275875 170.48275875 0 94.3448278125 76.1379309375 170.48275875 170.48275875 170.48275875 35.310345000000005 0 67.8620690625-10.4827584375 94.89655125-28.689655312499998L655.448275625 705.1034478125c14.8965515625 14.8965515625 39.17241375 14.8965515625 54.06896531249999 0 14.8965515625-14.8965515625 14.8965515625-39.17241375 0-54.06896531249999z m-246.0689653125-63.44827593749999c-70.19586187499999 0-126.89655187499999-56.70069-126.89655187499999-126.89655093750001s56.70069-126.89655187499999 126.89655187499999-126.89655187499999 126.89655187499999 56.70069 126.89655187499999 126.89655187499999c0.6731034375 70.19586187499999-56.022069375 126.89655187499999-126.89655187499999 126.89655093750001z" fill="#2c2c2c" p-id="3631"></path></svg>